<svg width="1920" height="1080" viewBox="0 0 1920 1080" fill="none" xmlns="http://www.w3.org/2000/svg">
<g clip-path="url(#clip0_430_2)">
<rect width="1920" height="1080" fill="url(#paint0_linear_430_2)"/>
<g filter="url(#filter0_d_430_2)">
<circle cx="1698" cy="561" r="350" fill="url(#paint1_linear_430_2)" fill-opacity="0.24" shape-rendering="crispEdges"/>
<circle cx="1698" cy="561" r="350.25" stroke="#9A9A9A" stroke-width="0.5" shape-rendering="crispEdges"/>
</g>
<g filter="url(#filter1_d_430_2)">
<circle cx="572" cy="951" r="81" fill="#08133D" fill-opacity="0.62" shape-rendering="crispEdges"/>
<circle cx="572" cy="951" r="81.25" stroke="#9A9A9A" stroke-width="0.5" shape-rendering="crispEdges"/>
</g>
<g filter="url(#filter2_d_430_2)">
<circle cx="1912.5" cy="203.5" r="41.5" fill="#08133D" fill-opacity="0.62" shape-rendering="crispEdges"/>
<circle cx="1912.5" cy="203.5" r="41.75" stroke="#9A9A9A" stroke-width="0.5" shape-rendering="crispEdges"/>
</g>
<path d="M2161.9 492C2161.9 742.129 1957.34 944.9 1705 944.9C1452.66 944.9 1248.1 742.129 1248.1 492C1248.1 241.871 1452.66 39.1 1705 39.1C1957.34 39.1 2161.9 241.871 2161.9 492Z" stroke="#FCFCFC" stroke-width="0.2"/>
<path d="M2231.9 469C2231.9 755.58 1997.57 987.9 1708.5 987.9C1419.43 987.9 1185.1 755.58 1185.1 469C1185.1 182.42 1419.43 -49.9 1708.5 -49.9C1997.57 -49.9 2231.9 182.42 2231.9 469Z" stroke="#FCFCFC" stroke-width="0.2"/>
<circle cx="1571.5" cy="384.5" r="31.6" fill="url(#paint2_linear_430_2)" fill-opacity="0.54" stroke="url(#paint3_linear_430_2)" stroke-width="0.2"/>
<circle cx="1493.5" cy="661.5" r="57.6" fill="url(#paint4_linear_430_2)" fill-opacity="0.54" stroke="url(#paint5_linear_430_2)" stroke-width="0.2"/>
<circle cx="1676" cy="824" r="33.1" fill="url(#paint6_linear_430_2)" fill-opacity="0.54" stroke="url(#paint7_linear_430_2)" stroke-width="0.2"/>
<circle cx="1650" cy="763" r="14.1" fill="url(#paint8_linear_430_2)" fill-opacity="0.54" stroke="url(#paint9_linear_430_2)" stroke-width="0.2"/>
<path d="M566.5 901.1C570.691 901.1 574.1 897.928 574.1 894C574.1 890.072 570.691 886.9 566.5 886.9C562.309 886.9 558.9 890.072 558.9 894C558.9 897.928 562.309 901.1 566.5 901.1Z" fill="url(#paint10_linear_430_2)" fill-opacity="0.54" stroke="url(#paint11_linear_430_2)" stroke-width="0.2"/>
<path d="M585 937.1C592.238 937.1 598.1 931.007 598.1 923.5C598.1 915.993 592.238 909.9 585 909.9C577.762 909.9 571.9 915.993 571.9 923.5C571.9 931.007 577.762 937.1 585 937.1Z" fill="url(#paint12_linear_430_2)" fill-opacity="0.54" stroke="url(#paint13_linear_430_2)" stroke-width="0.2"/>
<path d="M605.5 971.1C609.703 971.1 613.1 967.467 613.1 963C613.1 958.533 609.703 954.9 605.5 954.9C601.297 954.9 597.9 958.533 597.9 963C597.9 967.467 601.297 971.1 605.5 971.1Z" fill="url(#paint14_linear_430_2)" fill-opacity="0.54" stroke="url(#paint15_linear_430_2)" stroke-width="0.2"/>
<path d="M618.5 931.1C620.473 931.1 622.1 929.726 622.1 928C622.1 926.274 620.473 924.9 618.5 924.9C616.527 924.9 614.9 926.274 614.9 928C614.9 929.726 616.527 931.1 618.5 931.1Z" fill="url(#paint16_linear_430_2)" fill-opacity="0.54" stroke="url(#paint17_linear_430_2)" stroke-width="0.2"/>
<path d="M1910 178.1C1912.25 178.1 1914.1 176.5 1914.1 174.5C1914.1 172.5 1912.25 170.9 1910 170.9C1907.75 170.9 1905.9 172.5 1905.9 174.5C1905.9 176.5 1907.75 178.1 1910 178.1Z" fill="url(#paint18_linear_430_2)" fill-opacity="0.54" stroke="url(#paint19_linear_430_2)" stroke-width="0.2"/>
<path d="M1919.5 196.1C1923.15 196.1 1926.1 192.914 1926.1 189C1926.1 185.086 1923.15 181.9 1919.5 181.9C1915.85 181.9 1912.9 185.086 1912.9 189C1912.9 192.914 1915.85 196.1 1919.5 196.1Z" fill="url(#paint20_linear_430_2)" fill-opacity="0.54" stroke="url(#paint21_linear_430_2)" stroke-width="0.2"/>
<path d="M2233.9 473.5C2233.9 771.402 1990.39 1012.9 1690 1012.9C1389.61 1012.9 1146.1 771.402 1146.1 473.5C1146.1 175.598 1389.61 -65.9 1690 -65.9C1990.39 -65.9 2233.9 175.598 2233.9 473.5Z" stroke="#FCFCFC" stroke-width="0.2"/>
<g opacity="0.32">
<g filter="url(#filter3_d_430_2)">
<circle cx="25.5" cy="560.5" r="111.5" fill="#08133D" fill-opacity="0.62" shape-rendering="crispEdges"/>
<circle cx="25.5" cy="560.5" r="111.75" stroke="#9A9A9A" stroke-width="0.5" shape-rendering="crispEdges"/>
</g>
<path d="M18.7048 492.341C24.7186 492.341 29.615 488.021 29.615 482.666C29.615 477.312 24.7186 472.991 18.7048 472.991C12.691 472.991 7.79453 477.312 7.79453 482.666C7.79453 488.021 12.691 492.341 18.7048 492.341Z" fill="url(#paint22_linear_430_2)" fill-opacity="0.54" stroke="url(#paint23_linear_430_2)" stroke-width="0.2"/>
<path d="M44.3403 540.524C53.956 540.524 61.7367 532.036 61.7367 521.583C61.7367 511.131 53.956 502.642 44.3403 502.642C34.7247 502.642 26.9439 511.131 26.9439 521.583C26.9439 532.036 34.7247 540.524 44.3403 540.524Z" fill="url(#paint24_linear_430_2)" fill-opacity="0.54" stroke="url(#paint25_linear_430_2)" stroke-width="0.2"/>
<circle cx="72.447" cy="577.796" r="10.9102" fill="url(#paint26_linear_430_2)" fill-opacity="0.54" stroke="url(#paint27_linear_430_2)" stroke-width="0.2"/>
<circle cx="89.7438" cy="528.378" r="4.11524" fill="url(#paint28_linear_430_2)" fill-opacity="0.54" stroke="url(#paint29_linear_430_2)" stroke-width="0.2"/>
</g>
<circle cx="995" cy="176" r="1" fill="white" fill-opacity="0.57"/>
<circle cx="927" cy="234" r="2" fill="white" fill-opacity="0.57"/>
<circle cx="848" cy="346" r="2" fill="white" fill-opacity="0.57"/>
<circle cx="841.5" cy="212.5" r="4.5" fill="#344BBC"/>
<circle cx="831" cy="820" r="1" fill="#D9D9D9"/>
<circle cx="967" cy="953" r="2" fill="white"/>
</g>
<defs>
<filter id="filter0_d_430_2" x="1312.5" y="179.5" width="771" height="771" filterUnits="userSpaceOnUse" color-interpolation-filters="sRGB">
<feFlood flood-opacity="0" result="BackgroundImageFix"/>
<feColorMatrix in="SourceAlpha" type="matrix" values="0 0 0 0 0 0 0 0 0 0 0 0 0 0 0 0 0 0 127 0" result="hardAlpha"/>
<feMorphology radius="9" operator="dilate" in="SourceAlpha" result="effect1_dropShadow_430_2"/>
<feOffset dy="4"/>
<feGaussianBlur stdDeviation="13"/>
<feComposite in2="hardAlpha" operator="out"/>
<feColorMatrix type="matrix" values="0 0 0 0 0.554167 0 0 0 0 0.542622 0 0 0 0 0.542622 0 0 0 0.25 0"/>
<feBlend mode="normal" in2="BackgroundImageFix" result="effect1_dropShadow_430_2"/>
<feBlend mode="normal" in="SourceGraphic" in2="effect1_dropShadow_430_2" result="shape"/>
</filter>
<filter id="filter1_d_430_2" x="455.5" y="838.5" width="233" height="233" filterUnits="userSpaceOnUse" color-interpolation-filters="sRGB">
<feFlood flood-opacity="0" result="BackgroundImageFix"/>
<feColorMatrix in="SourceAlpha" type="matrix" values="0 0 0 0 0 0 0 0 0 0 0 0 0 0 0 0 0 0 127 0" result="hardAlpha"/>
<feMorphology radius="9" operator="dilate" in="SourceAlpha" result="effect1_dropShadow_430_2"/>
<feOffset dy="4"/>
<feGaussianBlur stdDeviation="13"/>
<feComposite in2="hardAlpha" operator="out"/>
<feColorMatrix type="matrix" values="0 0 0 0 0.554167 0 0 0 0 0.542622 0 0 0 0 0.542622 0 0 0 0.25 0"/>
<feBlend mode="normal" in2="BackgroundImageFix" result="effect1_dropShadow_430_2"/>
<feBlend mode="normal" in="SourceGraphic" in2="effect1_dropShadow_430_2" result="shape"/>
</filter>
<filter id="filter2_d_430_2" x="1835.5" y="130.5" width="154" height="154" filterUnits="userSpaceOnUse" color-interpolation-filters="sRGB">
<feFlood flood-opacity="0" result="BackgroundImageFix"/>
<feColorMatrix in="SourceAlpha" type="matrix" values="0 0 0 0 0 0 0 0 0 0 0 0 0 0 0 0 0 0 127 0" result="hardAlpha"/>
<feMorphology radius="9" operator="dilate" in="SourceAlpha" result="effect1_dropShadow_430_2"/>
<feOffset dy="4"/>
<feGaussianBlur stdDeviation="13"/>
<feComposite in2="hardAlpha" operator="out"/>
<feColorMatrix type="matrix" values="0 0 0 0 0.554167 0 0 0 0 0.542622 0 0 0 0 0.542622 0 0 0 0.25 0"/>
<feBlend mode="normal" in2="BackgroundImageFix" result="effect1_dropShadow_430_2"/>
<feBlend mode="normal" in="SourceGraphic" in2="effect1_dropShadow_430_2" result="shape"/>
</filter>
<filter id="filter3_d_430_2" x="-121.5" y="417.5" width="294" height="294" filterUnits="userSpaceOnUse" color-interpolation-filters="sRGB">
<feFlood flood-opacity="0" result="BackgroundImageFix"/>
<feColorMatrix in="SourceAlpha" type="matrix" values="0 0 0 0 0 0 0 0 0 0 0 0 0 0 0 0 0 0 127 0" result="hardAlpha"/>
<feMorphology radius="9" operator="dilate" in="SourceAlpha" result="effect1_dropShadow_430_2"/>
<feOffset dy="4"/>
<feGaussianBlur stdDeviation="13"/>
<feComposite in2="hardAlpha" operator="out"/>
<feColorMatrix type="matrix" values="0 0 0 0 0.554167 0 0 0 0 0.542622 0 0 0 0 0.542622 0 0 0 0.25 0"/>
<feBlend mode="normal" in2="BackgroundImageFix" result="effect1_dropShadow_430_2"/>
<feBlend mode="normal" in="SourceGraphic" in2="effect1_dropShadow_430_2" result="shape"/>
</filter>
<linearGradient id="paint0_linear_430_2" x1="1795.52" y1="47.1272" x2="442.574" y2="1402.05" gradientUnits="userSpaceOnUse">
<stop stop-color="#1F5878"/>
<stop offset="0.307292" stop-color="#042056" stop-opacity="0.963542"/>
<stop offset="0.636744" stop-color="#000C59" stop-opacity="0.909541"/>
<stop offset="0.823798" stop-color="#2A014A" stop-opacity="0.878881"/>
<stop offset="1" stop-color="#14128B" stop-opacity="0.85"/>
</linearGradient>
<linearGradient id="paint1_linear_430_2" x1="1931.5" y1="143.5" x2="1482.5" y2="911" gradientUnits="userSpaceOnUse">
<stop stop-color="#091028"/>
<stop offset="0.171875" stop-color="#00FF85" stop-opacity="0.875"/>
<stop offset="0.265625" stop-color="#00FFF0"/>
<stop offset="0.359375" stop-color="#0AD3FF" stop-opacity="0.893617"/>
<stop offset="0.416567" stop-color="#00ACFF" stop-opacity="0.79"/>
<stop offset="0.416667" stop-color="#1096DC" stop-opacity="0.91"/>
<stop offset="0.473958" stop-color="#0DA5DD" stop-opacity="0.76"/>
<stop offset="0.494792" stop-color="#10B5EA" stop-opacity="0.633982"/>
<stop offset="0.552083" stop-color="#1061DC" stop-opacity="0.91"/>
<stop offset="0.671875" stop-color="#1908E2" stop-opacity="0.94"/>
<stop offset="0.8125" stop-color="#452FC8" stop-opacity="0.85"/>
<stop offset="1" stop-color="#8C1379" stop-opacity="0.65"/>
</linearGradient>
<linearGradient id="paint2_linear_430_2" x1="1540" y1="395" x2="1572" y2="371" gradientUnits="userSpaceOnUse">
<stop stop-color="#4575E4"/>
<stop offset="1" stop-color="#4275EC" stop-opacity="0"/>
</linearGradient>
<linearGradient id="paint3_linear_430_2" x1="1603" y1="346" x2="1540" y2="416" gradientUnits="userSpaceOnUse">
<stop offset="0.0451662" stop-color="white"/>
<stop offset="0.3125" stop-color="white" stop-opacity="0.769113"/>
<stop offset="1" stop-color="#130E0E"/>
</linearGradient>
<linearGradient id="paint4_linear_430_2" x1="1436" y1="680.667" x2="1494.41" y2="636.857" gradientUnits="userSpaceOnUse">
<stop stop-color="#4575E4"/>
<stop offset="1" stop-color="#4275EC" stop-opacity="0"/>
</linearGradient>
<linearGradient id="paint5_linear_430_2" x1="1551" y1="591.222" x2="1436" y2="719" gradientUnits="userSpaceOnUse">
<stop offset="0.0451662" stop-color="white"/>
<stop offset="0.3125" stop-color="white" stop-opacity="0.769113"/>
<stop offset="1" stop-color="#130E0E"/>
</linearGradient>
<linearGradient id="paint6_linear_430_2" x1="1643" y1="835" x2="1676.52" y2="809.857" gradientUnits="userSpaceOnUse">
<stop stop-color="#4575E4"/>
<stop offset="1" stop-color="#4275EC" stop-opacity="0"/>
</linearGradient>
<linearGradient id="paint7_linear_430_2" x1="1709" y1="783.667" x2="1643" y2="857" gradientUnits="userSpaceOnUse">
<stop offset="0.0451662" stop-color="white"/>
<stop offset="0.3125" stop-color="white" stop-opacity="0.769113"/>
<stop offset="1" stop-color="#130E0E"/>
</linearGradient>
<linearGradient id="paint8_linear_430_2" x1="1636" y1="767.667" x2="1650.22" y2="757" gradientUnits="userSpaceOnUse">
<stop stop-color="#4575E4"/>
<stop offset="1" stop-color="#4275EC" stop-opacity="0"/>
</linearGradient>
<linearGradient id="paint9_linear_430_2" x1="1664" y1="745.889" x2="1636" y2="777" gradientUnits="userSpaceOnUse">
<stop offset="0.0451662" stop-color="white"/>
<stop offset="0.3125" stop-color="white" stop-opacity="0.769113"/>
<stop offset="1" stop-color="#130E0E"/>
</linearGradient>
<linearGradient id="paint10_linear_430_2" x1="559" y1="896.333" x2="566.234" y2="890.521" gradientUnits="userSpaceOnUse">
<stop stop-color="#4575E4"/>
<stop offset="1" stop-color="#4275EC" stop-opacity="0"/>
</linearGradient>
<linearGradient id="paint11_linear_430_2" x1="574" y1="885.444" x2="560.134" y2="901.952" gradientUnits="userSpaceOnUse">
<stop offset="0.0451662" stop-color="white"/>
<stop offset="0.3125" stop-color="white" stop-opacity="0.769113"/>
<stop offset="1" stop-color="#130E0E"/>
</linearGradient>
<linearGradient id="paint12_linear_430_2" x1="572" y1="928" x2="585.561" y2="918.206" gradientUnits="userSpaceOnUse">
<stop stop-color="#4575E4"/>
<stop offset="1" stop-color="#4275EC" stop-opacity="0"/>
</linearGradient>
<linearGradient id="paint13_linear_430_2" x1="598" y1="907" x2="570.912" y2="935.983" gradientUnits="userSpaceOnUse">
<stop offset="0.0451662" stop-color="white"/>
<stop offset="0.3125" stop-color="white" stop-opacity="0.769113"/>
<stop offset="1" stop-color="#130E0E"/>
</linearGradient>
<linearGradient id="paint14_linear_430_2" x1="598" y1="965.667" x2="605.966" y2="960.065" gradientUnits="userSpaceOnUse">
<stop stop-color="#4575E4"/>
<stop offset="1" stop-color="#4275EC" stop-opacity="0"/>
</linearGradient>
<linearGradient id="paint15_linear_430_2" x1="613" y1="953.222" x2="596.925" y2="969.968" gradientUnits="userSpaceOnUse">
<stop offset="0.0451662" stop-color="white"/>
<stop offset="0.3125" stop-color="white" stop-opacity="0.769113"/>
<stop offset="1" stop-color="#130E0E"/>
</linearGradient>
<linearGradient id="paint16_linear_430_2" x1="615" y1="929" x2="618.147" y2="926.247" gradientUnits="userSpaceOnUse">
<stop stop-color="#4575E4"/>
<stop offset="1" stop-color="#4275EC" stop-opacity="0"/>
</linearGradient>
<linearGradient id="paint17_linear_430_2" x1="622" y1="924.333" x2="616.164" y2="931.898" gradientUnits="userSpaceOnUse">
<stop offset="0.0451662" stop-color="white"/>
<stop offset="0.3125" stop-color="white" stop-opacity="0.769113"/>
<stop offset="1" stop-color="#130E0E"/>
</linearGradient>
<linearGradient id="paint18_linear_430_2" x1="1906" y1="175.667" x2="1909.66" y2="172.529" gradientUnits="userSpaceOnUse">
<stop stop-color="#4575E4"/>
<stop offset="1" stop-color="#4275EC" stop-opacity="0"/>
</linearGradient>
<linearGradient id="paint19_linear_430_2" x1="1914" y1="170.222" x2="1907.16" y2="178.911" gradientUnits="userSpaceOnUse">
<stop offset="0.0451662" stop-color="white"/>
<stop offset="0.3125" stop-color="white" stop-opacity="0.769113"/>
<stop offset="1" stop-color="#130E0E"/>
</linearGradient>
<linearGradient id="paint20_linear_430_2" x1="1913" y1="191.333" x2="1919.95" y2="186.495" gradientUnits="userSpaceOnUse">
<stop stop-color="#4575E4"/>
<stop offset="1" stop-color="#4275EC" stop-opacity="0"/>
</linearGradient>
<linearGradient id="paint21_linear_430_2" x1="1926" y1="180.444" x2="1911.93" y2="194.962" gradientUnits="userSpaceOnUse">
<stop offset="0.0451662" stop-color="white"/>
<stop offset="0.3125" stop-color="white" stop-opacity="0.769113"/>
<stop offset="1" stop-color="#130E0E"/>
</linearGradient>
<linearGradient id="paint22_linear_430_2" x1="7.89453" y1="485.858" x2="17.888" y2="477.396" gradientUnits="userSpaceOnUse">
<stop stop-color="#4575E4"/>
<stop offset="1" stop-color="#4275EC" stop-opacity="0"/>
</linearGradient>
<linearGradient id="paint23_linear_430_2" x1="29.515" y1="470.964" x2="10.7436" y2="494.512" gradientUnits="userSpaceOnUse">
<stop offset="0.0451662" stop-color="white"/>
<stop offset="0.3125" stop-color="white" stop-opacity="0.769113"/>
<stop offset="1" stop-color="#130E0E"/>
</linearGradient>
<linearGradient id="paint24_linear_430_2" x1="27.0439" y1="527.863" x2="45.669" y2="515.04" gradientUnits="userSpaceOnUse">
<stop stop-color="#4575E4"/>
<stop offset="1" stop-color="#4275EC" stop-opacity="0"/>
</linearGradient>
<linearGradient id="paint25_linear_430_2" x1="61.6367" y1="498.556" x2="23.7534" y2="537.198" gradientUnits="userSpaceOnUse">
<stop offset="0.0451662" stop-color="white"/>
<stop offset="0.3125" stop-color="white" stop-opacity="0.769113"/>
<stop offset="1" stop-color="#130E0E"/>
</linearGradient>
<linearGradient id="paint26_linear_430_2" x1="61.6367" y1="581.4" x2="72.6186" y2="573.163" gradientUnits="userSpaceOnUse">
<stop stop-color="#4575E4"/>
<stop offset="1" stop-color="#4275EC" stop-opacity="0"/>
</linearGradient>
<linearGradient id="paint27_linear_430_2" x1="83.2572" y1="564.584" x2="61.6367" y2="588.607" gradientUnits="userSpaceOnUse">
<stop offset="0.0451662" stop-color="white"/>
<stop offset="0.3125" stop-color="white" stop-opacity="0.769113"/>
<stop offset="1" stop-color="#130E0E"/>
</linearGradient>
<linearGradient id="paint28_linear_430_2" x1="85.7285" y1="529.717" x2="89.8075" y2="526.657" gradientUnits="userSpaceOnUse">
<stop stop-color="#4575E4"/>
<stop offset="1" stop-color="#4275EC" stop-opacity="0"/>
</linearGradient>
<linearGradient id="paint29_linear_430_2" x1="93.759" y1="523.471" x2="85.7285" y2="532.393" gradientUnits="userSpaceOnUse">
<stop offset="0.0451662" stop-color="white"/>
<stop offset="0.3125" stop-color="white" stop-opacity="0.769113"/>
<stop offset="1" stop-color="#130E0E"/>
</linearGradient>
<clipPath id="clip0_430_2">
<rect width="1920" height="1080" fill="white"/>
</clipPath>
</defs>
</svg>
